<svg width="24" height="23" viewBox="0 0 24 23" fill="none" xmlns="http://www.w3.org/2000/svg">
<path fill-rule="evenodd" clip-rule="evenodd" d="M7.14301 0.0684636C8.37027 0.0124479 8.76158 0 11.8878 0C15.0141 0 15.4054 0.0134852 16.6316 0.0684636C17.8578 0.123442 18.6948 0.317422 19.4272 0.598538C20.1941 0.885878 20.8899 1.33504 21.4653 1.91594C22.0512 2.48544 22.5032 3.17422 22.792 3.93562C23.0766 4.66175 23.2712 5.49161 23.3277 6.70529C23.3842 7.92415 23.3967 8.31211 23.3967 11.4106C23.3967 14.5101 23.3831 14.8981 23.3277 16.1149C23.2722 17.3286 23.0766 18.1584 22.792 18.8845C22.5032 19.646 22.0505 20.336 21.4653 20.9063C20.8899 21.4872 20.1941 21.9353 19.4272 22.2216C18.6948 22.5038 17.8578 22.6967 16.6337 22.7527C15.4054 22.8088 15.0141 22.8212 11.8878 22.8212C8.76158 22.8212 8.37027 22.8077 7.14301 22.7527C5.91888 22.6978 5.08187 22.5038 4.34948 22.2216C3.58144 21.9353 2.88557 21.4864 2.31031 20.9063C1.7248 20.3365 1.2717 19.6469 0.982601 18.8856C0.699063 18.1595 0.504458 17.3296 0.44796 16.1159C0.391461 14.8971 0.378906 14.5091 0.378906 11.4106C0.378906 8.31107 0.392508 7.92311 0.44796 6.70736C0.503412 5.49161 0.699063 4.66175 0.982601 3.93562C1.27213 3.17431 1.72557 2.48472 2.31136 1.91491C2.8858 1.33452 3.58097 0.8853 4.34843 0.598538C5.08082 0.317422 5.91783 0.124479 7.14196 0.0684636H7.14301ZM16.5385 2.12237C15.3248 2.06739 14.9607 2.05598 11.8878 2.05598C8.81494 2.05598 8.45084 2.06739 7.23717 2.12237C6.11453 2.1732 5.5056 2.35888 5.09965 2.51552C4.56292 2.72299 4.17894 2.96883 3.77613 3.3682C3.39429 3.73651 3.10043 4.18487 2.9161 4.68042C2.75811 5.08291 2.57083 5.68663 2.51956 6.79968C2.46411 8.00298 2.4526 8.36397 2.4526 11.4106C2.4526 14.4572 2.46411 14.8182 2.51956 16.0215C2.57083 17.1346 2.75811 17.7383 2.9161 18.1408C3.10024 18.6356 3.39424 19.0848 3.77613 19.453C4.14755 19.8316 4.60058 20.1231 5.09965 20.3057C5.5056 20.4623 6.11453 20.648 7.23717 20.6988C8.45084 20.7538 8.81389 20.7652 11.8878 20.7652C14.9617 20.7652 15.3248 20.7538 16.5385 20.6988C17.6611 20.648 18.27 20.4623 18.676 20.3057C19.2127 20.0982 19.5967 19.8524 19.9995 19.453C20.3814 19.0848 20.6754 18.6356 20.8595 18.1408C21.0175 17.7383 21.2048 17.1346 21.2561 16.0215C21.3115 14.8182 21.323 14.4572 21.323 11.4106C21.323 8.36397 21.3115 8.00298 21.2561 6.79968C21.2048 5.68663 21.0175 5.08291 20.8595 4.68042C20.6503 4.14827 20.4023 3.76757 19.9995 3.3682C19.628 2.98965 19.1758 2.69831 18.676 2.51552C18.27 2.35888 17.6611 2.1732 16.5385 2.12237V2.12237ZM10.4178 14.9282C11.2388 15.267 12.1529 15.3127 13.0041 15.0576C13.8553 14.8024 14.5907 14.2621 15.0848 13.5291C15.5789 12.796 15.8009 11.9156 15.713 11.0383C15.6251 10.161 15.2327 9.34111 14.6029 8.71874C14.2014 8.3209 13.7159 8.01627 13.1813 7.82679C12.6468 7.63731 12.0766 7.56768 11.5117 7.62292C10.9468 7.67817 10.4012 7.8569 9.91436 8.14627C9.42748 8.43564 9.01137 8.82843 8.69598 9.29638C8.38059 9.76432 8.17377 10.2958 8.09042 10.8525C8.00706 11.4092 8.04923 11.9773 8.2139 12.5159C8.37857 13.0545 8.66164 13.5502 9.04273 13.9673C9.42382 14.3844 9.89345 14.7126 10.4178 14.9282ZM7.70485 7.26337C8.25417 6.71875 8.9063 6.28673 9.62401 5.99198C10.3417 5.69723 11.111 5.54553 11.8878 5.54553C12.6647 5.54553 13.4339 5.69723 14.1516 5.99198C14.8693 6.28673 15.5215 6.71875 16.0708 7.26337C16.6201 7.80799 17.0558 8.45455 17.3531 9.16614C17.6504 9.87772 17.8034 10.6404 17.8034 11.4106C17.8034 12.1808 17.6504 12.9435 17.3531 13.6551C17.0558 14.3667 16.6201 15.0132 16.0708 15.5578C14.9614 16.6578 13.4567 17.2757 11.8878 17.2757C10.3189 17.2757 8.81424 16.6578 7.70485 15.5578C6.59546 14.4579 5.97221 12.9661 5.97221 11.4106C5.97221 9.85509 6.59546 8.36328 7.70485 7.26337V7.26337ZM19.1154 6.41898C19.2515 6.29167 19.3605 6.13857 19.4359 5.96876C19.5113 5.79894 19.5515 5.61585 19.5542 5.43034C19.557 5.24482 19.5221 5.06065 19.4518 4.88873C19.3814 4.7168 19.277 4.56062 19.1447 4.42943C19.0123 4.29824 18.8548 4.1947 18.6814 4.12495C18.508 4.0552 18.3222 4.02066 18.1351 4.02336C17.948 4.02607 17.7634 4.06597 17.5921 4.1407C17.4208 4.21543 17.2664 4.32347 17.138 4.45843C16.8882 4.72091 16.7515 5.06955 16.7568 5.43034C16.7621 5.79113 16.909 6.13567 17.1664 6.39081C17.4237 6.64596 17.7712 6.79162 18.1351 6.79688C18.499 6.80214 18.8507 6.66658 19.1154 6.41898V6.41898Z" fill="white"/>
</svg>
