<?xml version="1.0" encoding="utf-8"?>
<!-- Generator: Adobe Illustrator 23.0.5, SVG Export Plug-In . SVG Version: 6.00 Build 0)  -->
<svg version="1.1" id="Capa_1" xmlns="http://www.w3.org/2000/svg" xmlns:xlink="http://www.w3.org/1999/xlink" x="0px" y="0px"
	 viewBox="0 0 841.89 595.28" style="enable-background:new 0 0 841.89 595.28;" xml:space="preserve">
<style type="text/css">
	.st0{fill:#040006;}
	.st1{stroke:#000000;stroke-width:1.0455;stroke-miterlimit:10;}
</style>
<g>
	<g>
		<path class="st0" d="M49.2,337.37c-0.16,2.18-0.24,5.17-0.24,8.97c0,3.8,0.32,7.72,0.97,11.76c0.49,3.07,1.17,6,2.06,8.79
			c0.89,2.79,2.12,5.01,3.7,6.67c1.58,1.66,3.52,2.57,5.82,2.73c2.3,0.16,5.11-0.81,8.43-2.91c2.43-1.78,4.77-3.96,7.03-6.55
			c2.26-2.59,4.41-5.35,6.43-8.31c2.02-2.95,3.88-6.06,5.58-9.34s3.19-6.49,4.49-9.64c0.32-0.56,0.73-0.73,1.21-0.49
			c0.48,0.24,0.61,0.65,0.36,1.21c-1.38,3.32-2.93,6.65-4.67,10c-1.74,3.35-3.64,6.57-5.7,9.64c-2.06,3.07-4.29,5.94-6.67,8.61
			c-2.38,2.67-4.91,4.89-7.58,6.67c-6.63,4.77-12.31,5.7-17.04,2.79c-4.73-2.91-8.02-9.66-9.88-20.25
			c-1.05-6.14-1.58-13.18-1.58-21.1c0-7.92,0.42-16.15,1.27-24.68c0.85-8.53,2.1-17.04,3.76-25.52c1.66-8.49,3.6-16.39,5.82-23.71
			c2.22-7.32,4.69-13.72,7.4-19.22c2.71-5.5,5.56-9.5,8.55-12c2.5-2.1,5.07-3.33,7.7-3.7c2.63-0.36,5.07,0.04,7.34,1.21
			c2.26,1.17,4.28,3.07,6.06,5.7c1.78,2.63,3.07,5.92,3.88,9.88c1.13,5.58,1.27,11.38,0.42,17.4c-0.85,6.02-2.41,12.02-4.67,18.01
			c-2.26,5.98-5.03,11.84-8.31,17.58c-3.27,5.74-6.77,11.14-10.49,16.19c-3.72,5.05-7.44,9.6-11.16,13.64
			C55.79,331.47,52.35,334.78,49.2,337.37z M48.72,334.82c3.15-2.59,6.55-5.86,10.19-9.82c3.64-3.96,7.23-8.35,10.79-13.16
			c3.56-4.81,6.91-9.98,10.06-15.52c3.15-5.54,5.8-11.2,7.94-16.98c2.14-5.78,3.62-11.6,4.43-17.46c0.81-5.86,0.69-11.5-0.36-16.92
			c-0.65-3.4-1.64-6.18-2.97-8.37c-1.33-2.18-2.89-3.7-4.67-4.55c-1.78-0.85-3.72-0.95-5.82-0.3c-2.1,0.65-4.24,2.14-6.43,4.49
			c-2.75,2.91-5.21,6.73-7.4,11.46c-2.18,4.73-4.12,9.99-5.82,15.76c-1.7,5.78-3.15,11.9-4.37,18.37
			c-1.21,6.47-2.22,12.87-3.03,19.22c-0.81,6.35-1.42,12.43-1.82,18.25C49.04,325.12,48.8,330.3,48.72,334.82z"/>
		<path class="st0" d="M127.65,326.82c-0.73,2.1-1.44,4.43-2.12,6.97c-0.69,2.55-1.32,5.19-1.88,7.94
			c-0.57,2.75-1.05,5.54-1.46,8.37c-0.41,2.83-0.73,5.54-0.97,8.12c-0.08,0.81-0.18,2.06-0.3,3.76c-0.12,1.7-0.16,3.44-0.12,5.21
			c0.04,1.78,0.2,3.44,0.49,4.97c0.28,1.53,0.79,2.55,1.52,3.03c1.13,0.73,2.59,0.69,4.36-0.12c1.78-0.81,3.68-2.12,5.7-3.94
			c2.02-1.82,4.04-4.02,6.06-6.61c2.02-2.59,3.88-5.29,5.58-8.12c2.1-3.64,3.9-6.89,5.4-9.76c1.49-2.87,2.57-5.23,3.21-7.09
			c0.32-0.56,0.73-0.73,1.21-0.49c0.49,0.24,0.61,0.65,0.36,1.21c-0.89,2.18-2.04,4.77-3.46,7.76c-1.42,2.99-3.09,6.1-5.03,9.34
			c-1.94,3.15-4.04,6.23-6.3,9.22c-2.26,2.99-4.57,5.58-6.91,7.76c-2.35,2.18-4.65,3.8-6.91,4.85c-2.26,1.05-4.36,1.17-6.31,0.36
			c-1.13-0.49-2.02-1.33-2.67-2.55c-0.65-1.21-1.15-2.75-1.52-4.61c-0.36-1.86-0.55-3.98-0.55-6.37c0-2.38,0.12-4.91,0.36-7.58
			c0.4-3.72,0.97-7.64,1.7-11.76c0.73-4.12,1.62-8.2,2.67-12.25c-0.97,2.26-2.26,4.91-3.88,7.94c-1.62,3.03-3.4,6.06-5.33,9.09
			c-1.94,3.03-3.94,5.92-6,8.67c-2.06,2.75-4.06,4.97-6,6.67c-1.46,1.38-2.95,2.32-4.49,2.85c-1.53,0.53-2.91,0.53-4.12,0
			c-1.21-0.52-2.14-1.68-2.79-3.46c-0.65-1.78-0.85-4.24-0.61-7.4c0.4-5.58,1.8-10.73,4.18-15.46c2.38-4.73,5.25-8.49,8.61-11.28
			c3.35-2.79,6.91-4.37,10.67-4.73c3.76-0.36,7.26,1.03,10.49,4.18l1.94-5.46c0.56-1.37,1.19-2.24,1.88-2.61
			c0.69-0.36,1.29-0.42,1.82-0.18c0.52,0.24,0.95,0.71,1.27,1.39C127.73,325.38,127.82,326.09,127.65,326.82z M119.17,333
			c-2.18-2.43-4.59-3.58-7.21-3.46c-2.63,0.12-5.2,1.27-7.7,3.46c-2.51,2.18-4.85,5.19-7.03,9.03c-2.18,3.84-3.92,8.23-5.21,13.16
			c-0.65,2.26-0.99,4.3-1.03,6.12c-0.04,1.82,0.2,3.25,0.73,4.31c0.53,1.05,1.33,1.58,2.43,1.58c1.09,0,2.53-0.69,4.3-2.06
			c1.78-1.62,3.7-3.76,5.76-6.43c2.06-2.67,4.04-5.52,5.94-8.55c1.9-3.03,3.66-6.06,5.28-9.09
			C117.02,338.03,118.28,335.35,119.17,333z"/>
		<path class="st0" d="M240.78,335.19c0,0.57-0.26,0.91-0.79,1.03c-0.53,0.12-0.71-0.1-0.55-0.67c-0.73-2.02-1.7-3.47-2.91-4.37
			c-1.21-0.89-2.51-1.25-3.88-1.09c-2.35,0.32-4.3,1.64-5.88,3.94c-1.58,2.3-2.77,5.11-3.58,8.43c-0.81,3.32-1.17,6.81-1.09,10.49
			c0.08,3.68,0.69,7.05,1.82,10.12c1.13,3.07,2.81,5.56,5.03,7.46c2.22,1.9,5.07,2.69,8.55,2.36c4.12-0.4,8.04-1.56,11.76-3.46
			c3.72-1.9,7.15-4.36,10.31-7.4c3.15-3.03,6.02-6.47,8.61-10.31c2.59-3.84,4.85-7.9,6.79-12.19c0.4-0.56,0.83-0.73,1.27-0.49
			c0.44,0.24,0.55,0.65,0.3,1.21c-1.94,4.45-4.26,8.71-6.97,12.79c-2.71,4.08-5.74,7.7-9.09,10.85c-3.36,3.15-6.95,5.74-10.79,7.76
			c-3.84,2.02-7.86,3.19-12.07,3.52c-5.26,0.48-9.52-0.41-12.79-2.67c-3.27-2.26-5.74-5.21-7.4-8.85c-1.66-3.64-2.5-7.62-2.55-11.94
			c-0.04-4.32,0.61-8.32,1.94-12c1.33-3.68,3.29-6.71,5.88-9.09c2.59-2.38,5.7-3.41,9.34-3.09c1.86,0.16,3.58,0.83,5.15,2
			C238.78,330.72,239.98,332.6,240.78,335.19z"/>
		<path class="st0" d="M309.17,326.82c-0.73,2.1-1.44,4.43-2.12,6.97c-0.69,2.55-1.32,5.19-1.88,7.94
			c-0.57,2.75-1.05,5.54-1.46,8.37c-0.41,2.83-0.73,5.54-0.97,8.12c-0.08,0.81-0.18,2.06-0.3,3.76c-0.12,1.7-0.16,3.44-0.12,5.21
			c0.04,1.78,0.2,3.44,0.49,4.97c0.28,1.53,0.79,2.55,1.52,3.03c1.13,0.73,2.59,0.69,4.36-0.12c1.78-0.81,3.68-2.12,5.7-3.94
			c2.02-1.82,4.04-4.02,6.06-6.61c2.02-2.59,3.88-5.29,5.58-8.12c2.1-3.64,3.9-6.89,5.4-9.76c1.49-2.87,2.56-5.23,3.21-7.09
			c0.32-0.56,0.73-0.73,1.21-0.49s0.61,0.65,0.36,1.21c-0.89,2.18-2.04,4.77-3.45,7.76c-1.42,2.99-3.09,6.1-5.03,9.34
			c-1.94,3.15-4.04,6.23-6.3,9.22c-2.26,2.99-4.57,5.58-6.91,7.76c-2.35,2.18-4.65,3.8-6.91,4.85c-2.26,1.05-4.36,1.17-6.31,0.36
			c-1.13-0.49-2.02-1.33-2.67-2.55c-0.65-1.21-1.15-2.75-1.52-4.61c-0.36-1.86-0.55-3.98-0.55-6.37c0-2.38,0.12-4.91,0.36-7.58
			c0.4-3.72,0.97-7.64,1.7-11.76c0.73-4.12,1.62-8.2,2.67-12.25c-0.97,2.26-2.26,4.91-3.88,7.94c-1.62,3.03-3.4,6.06-5.33,9.09
			c-1.94,3.03-3.94,5.92-6,8.67c-2.06,2.75-4.06,4.97-6,6.67c-1.46,1.38-2.95,2.32-4.49,2.85c-1.53,0.53-2.91,0.53-4.12,0
			c-1.21-0.52-2.14-1.68-2.79-3.46c-0.65-1.78-0.85-4.24-0.61-7.4c0.4-5.58,1.8-10.73,4.18-15.46c2.38-4.73,5.25-8.49,8.61-11.28
			c3.35-2.79,6.91-4.37,10.67-4.73c3.76-0.36,7.26,1.03,10.49,4.18l1.94-5.46c0.56-1.37,1.19-2.24,1.88-2.61
			c0.69-0.36,1.29-0.42,1.82-0.18c0.52,0.24,0.95,0.71,1.27,1.39C309.25,325.38,309.33,326.09,309.17,326.82z M300.68,333
			c-2.18-2.43-4.59-3.58-7.21-3.46c-2.63,0.12-5.2,1.27-7.7,3.46c-2.51,2.18-4.85,5.19-7.03,9.03c-2.18,3.84-3.92,8.23-5.21,13.16
			c-0.65,2.26-0.99,4.3-1.03,6.12c-0.04,1.82,0.2,3.25,0.73,4.31c0.53,1.05,1.33,1.58,2.43,1.58c1.09,0,2.53-0.69,4.3-2.06
			c1.78-1.62,3.7-3.76,5.76-6.43c2.06-2.67,4.04-5.52,5.94-8.55c1.9-3.03,3.66-6.06,5.28-9.09
			C298.54,338.03,299.79,335.35,300.68,333z"/>
		<path class="st0" d="M341.3,337.37c-0.16,2.18-0.24,5.17-0.24,8.97c0,3.8,0.32,7.72,0.97,11.76c0.48,3.07,1.17,6,2.06,8.79
			c0.89,2.79,2.12,5.01,3.7,6.67c1.58,1.66,3.52,2.57,5.82,2.73c2.3,0.16,5.11-0.81,8.43-2.91c2.42-1.78,4.77-3.96,7.03-6.55
			c2.26-2.59,4.41-5.35,6.43-8.31c2.02-2.95,3.88-6.06,5.58-9.34s3.19-6.49,4.49-9.64c0.32-0.56,0.73-0.73,1.21-0.49
			s0.61,0.65,0.36,1.21c-1.37,3.32-2.93,6.65-4.67,10c-1.74,3.35-3.64,6.57-5.7,9.64c-2.06,3.07-4.29,5.94-6.67,8.61
			c-2.38,2.67-4.91,4.89-7.58,6.67c-6.63,4.77-12.31,5.7-17.04,2.79c-4.73-2.91-8.02-9.66-9.88-20.25
			c-1.05-6.14-1.58-13.18-1.58-21.1c0-7.92,0.42-16.15,1.27-24.68c0.85-8.53,2.1-17.04,3.76-25.52c1.66-8.49,3.6-16.39,5.82-23.71
			c2.22-7.32,4.69-13.72,7.4-19.22c2.71-5.5,5.56-9.5,8.55-12c2.5-2.1,5.07-3.33,7.7-3.7c2.63-0.36,5.07,0.04,7.34,1.21
			c2.26,1.17,4.28,3.07,6.06,5.7c1.78,2.63,3.07,5.92,3.88,9.88c1.13,5.58,1.27,11.38,0.42,17.4c-0.85,6.02-2.41,12.02-4.67,18.01
			c-2.27,5.98-5.03,11.84-8.31,17.58c-3.27,5.74-6.77,11.14-10.49,16.19c-3.72,5.05-7.44,9.6-11.16,13.64
			C347.89,331.47,344.46,334.78,341.3,337.37z M340.82,334.82c3.15-2.59,6.55-5.86,10.19-9.82c3.64-3.96,7.23-8.35,10.79-13.16
			c3.56-4.81,6.91-9.98,10.06-15.52c3.15-5.54,5.8-11.2,7.94-16.98c2.14-5.78,3.62-11.6,4.43-17.46c0.81-5.86,0.69-11.5-0.36-16.92
			c-0.65-3.4-1.64-6.18-2.97-8.37c-1.33-2.18-2.89-3.7-4.67-4.55c-1.78-0.85-3.72-0.95-5.82-0.3c-2.1,0.65-4.24,2.14-6.43,4.49
			c-2.75,2.91-5.21,6.73-7.4,11.46c-2.18,4.73-4.12,9.99-5.82,15.76c-1.7,5.78-3.15,11.9-4.37,18.37
			c-1.21,6.47-2.22,12.87-3.03,19.22c-0.81,6.35-1.41,12.43-1.82,18.25C341.14,325.12,340.9,330.3,340.82,334.82z"/>
		<path class="st0" d="M419.76,326.82c-0.73,2.1-1.44,4.43-2.12,6.97c-0.69,2.55-1.32,5.19-1.88,7.94
			c-0.57,2.75-1.05,5.54-1.45,8.37c-0.41,2.83-0.73,5.54-0.97,8.12c-0.08,0.81-0.18,2.06-0.3,3.76c-0.12,1.7-0.16,3.44-0.12,5.21
			c0.04,1.78,0.2,3.44,0.49,4.97c0.28,1.53,0.79,2.55,1.52,3.03c1.13,0.73,2.59,0.69,4.37-0.12c1.78-0.81,3.68-2.12,5.7-3.94
			c2.02-1.82,4.04-4.02,6.06-6.61c2.02-2.59,3.88-5.29,5.58-8.12c2.1-3.64,3.9-6.89,5.4-9.76c1.49-2.87,2.56-5.23,3.21-7.09
			c0.32-0.56,0.73-0.73,1.21-0.49s0.61,0.65,0.36,1.21c-0.89,2.18-2.04,4.77-3.45,7.76c-1.42,2.99-3.09,6.1-5.03,9.34
			c-1.94,3.15-4.04,6.23-6.31,9.22c-2.26,2.99-4.57,5.58-6.91,7.76c-2.35,2.18-4.65,3.8-6.91,4.85c-2.26,1.05-4.37,1.17-6.31,0.36
			c-1.13-0.49-2.02-1.33-2.67-2.55c-0.65-1.21-1.15-2.75-1.52-4.61c-0.36-1.86-0.55-3.98-0.55-6.37c0-2.38,0.12-4.91,0.36-7.58
			c0.4-3.72,0.97-7.64,1.7-11.76c0.73-4.12,1.62-8.2,2.67-12.25c-0.97,2.26-2.26,4.91-3.88,7.94c-1.62,3.03-3.4,6.06-5.34,9.09
			c-1.94,3.03-3.94,5.92-6,8.67c-2.06,2.75-4.06,4.97-6,6.67c-1.46,1.38-2.95,2.32-4.49,2.85c-1.53,0.53-2.91,0.53-4.12,0
			c-1.21-0.52-2.14-1.68-2.79-3.46c-0.65-1.78-0.85-4.24-0.61-7.4c0.41-5.58,1.8-10.73,4.18-15.46c2.38-4.73,5.25-8.49,8.61-11.28
			c3.35-2.79,6.91-4.37,10.67-4.73c3.76-0.36,7.25,1.03,10.49,4.18l1.94-5.46c0.56-1.37,1.19-2.24,1.88-2.61
			c0.69-0.36,1.29-0.42,1.82-0.18c0.53,0.24,0.95,0.71,1.27,1.39C419.83,325.38,419.92,326.09,419.76,326.82z M411.27,333
			c-2.18-2.43-4.59-3.58-7.21-3.46c-2.63,0.12-5.19,1.27-7.7,3.46c-2.51,2.18-4.85,5.19-7.03,9.03c-2.18,3.84-3.92,8.23-5.21,13.16
			c-0.65,2.26-0.99,4.3-1.03,6.12c-0.04,1.82,0.2,3.25,0.73,4.31c0.53,1.05,1.33,1.58,2.43,1.58c1.09,0,2.53-0.69,4.3-2.06
			c1.78-1.62,3.7-3.76,5.76-6.43s4.04-5.52,5.94-8.55c1.9-3.03,3.66-6.06,5.27-9.09C409.12,338.03,410.38,335.35,411.27,333z"/>
		<path class="st0" d="M445.22,338.82c0.16-0.81,0.61-1.37,1.33-1.7c0.73-0.32,1.49-0.42,2.3-0.3c0.81,0.12,1.49,0.42,2.06,0.91
			c0.56,0.49,0.77,1.09,0.61,1.82c-1.13,7.03-1.9,12.39-2.3,16.07c-0.4,3.68-0.54,6.17-0.42,7.46c0.12,1.29,0.44,1.64,0.97,1.03
			c0.53-0.61,1.15-1.64,1.88-3.09c1.29-2.5,2.49-5.15,3.58-7.94c1.09-2.79,2.18-5.58,3.27-8.37c1.09-2.79,2.24-5.5,3.45-8.12
			c1.21-2.63,2.63-5.03,4.24-7.21c0.73-0.97,1.53-1.96,2.42-2.97c0.89-1.01,1.82-1.82,2.79-2.43c0.97-0.61,2-0.93,3.09-0.97
			c1.09-0.04,2.24,0.38,3.46,1.27c1.53,1.13,2.63,3.07,3.27,5.82c0.65,2.75,1.01,5.88,1.09,9.4c0.08,3.52,0,7.2-0.24,11.03
			c-0.24,3.84-0.41,7.34-0.49,10.49c0,3.8,0.28,6.75,0.85,8.85c0.56,2.1,1.37,3.44,2.42,4c1.05,0.56,2.32,0.44,3.82-0.36
			c1.49-0.81,3.21-2.18,5.15-4.12c1.7-1.78,3.43-3.84,5.21-6.18c1.78-2.34,3.47-4.83,5.09-7.46c1.62-2.63,3.11-5.33,4.49-8.12
			c1.37-2.79,2.55-5.48,3.52-8.06c0.32-0.56,0.73-0.73,1.21-0.49c0.48,0.24,0.61,0.65,0.36,1.21c-0.97,2.67-2.14,5.42-3.52,8.25
			c-1.38,2.83-2.89,5.62-4.55,8.37c-1.66,2.75-3.4,5.36-5.21,7.82c-1.82,2.47-3.62,4.63-5.4,6.49c-0.97,1.05-2.06,2.04-3.27,2.97
			c-1.21,0.93-2.49,1.68-3.82,2.24c-1.33,0.56-2.71,0.81-4.12,0.73c-1.42-0.08-2.85-0.61-4.3-1.58c-1.54-1.21-2.63-3.36-3.27-6.43
			c-0.65-3.07-1.03-6.45-1.15-10.13c-0.12-3.68-0.08-7.34,0.12-10.97c0.2-3.64,0.38-6.59,0.55-8.85c0.08-2.18,0.02-4.38-0.18-6.61
			c-0.2-2.22-0.63-3.96-1.27-5.21c-0.65-1.25-1.54-1.78-2.67-1.58c-1.13,0.2-2.59,1.64-4.37,4.3c-1.45,2.18-2.79,4.61-4,7.28
			c-1.21,2.67-2.38,5.44-3.52,8.31c-1.13,2.87-2.24,5.72-3.34,8.55c-1.09,2.83-2.24,5.46-3.45,7.88c-0.41,0.73-0.85,1.6-1.33,2.61
			c-0.48,1.01-1.03,1.98-1.64,2.91c-0.61,0.93-1.25,1.7-1.94,2.3c-0.69,0.61-1.39,0.91-2.12,0.91c-1.13,0-1.96-0.71-2.49-2.12
			c-0.52-1.41-0.83-3.19-0.91-5.33c-0.08-2.14-0.02-4.51,0.18-7.09c0.2-2.59,0.47-5.05,0.79-7.4c0.32-2.34,0.67-4.44,1.03-6.31
			C444.91,340.72,445.14,339.47,445.22,338.82z"/>
		<path class="st0" d="M544.16,334.82c-1.13,3.32-2.55,6.97-4.24,10.97c-1.7,4-3.62,7.84-5.76,11.52c-2.14,3.68-4.49,6.97-7.03,9.88
			c-2.55,2.91-5.2,4.85-7.94,5.82c-2.83,0.97-5.3,0.77-7.4-0.61c-2.1-1.38-3.64-3.47-4.61-6.31c-0.97-2.83-1.31-6.2-1.03-10.12
			c0.28-3.92,1.39-7.94,3.33-12.07c1.54-3.15,3.48-5.88,5.82-8.18c2.34-2.3,4.97-3.94,7.88-4.91c2.91-0.97,6.04-1.19,9.4-0.67
			c3.35,0.53,6.73,1.96,10.13,4.3l1.58-5.46c0.24-4.44,0.56-9.64,0.97-15.58c0.4-5.94,1.03-12.19,1.88-18.73
			c0.85-6.55,1.9-13.14,3.15-19.76c1.25-6.63,2.85-12.83,4.79-18.61c1.94-5.78,4.22-10.89,6.85-15.34c2.63-4.44,5.72-7.72,9.28-9.82
			c3.15-1.94,6.32-2.81,9.52-2.61c3.19,0.2,6.06,1.35,8.61,3.46c2.55,2.1,4.57,5.09,6.06,8.97c1.49,3.88,2.2,8.61,2.12,14.19
			c-0.08,4.77-0.89,9.74-2.42,14.91c-1.54,5.17-3.54,10.37-6,15.58c-2.47,5.21-5.3,10.37-8.49,15.46
			c-3.19,5.09-6.49,9.88-9.88,14.37c-3.4,4.49-6.81,8.57-10.25,12.25c-3.44,3.68-6.61,6.77-9.52,9.28c0.08,1.86,0.16,4.43,0.24,7.7
			c0.08,3.27,0.34,6.71,0.79,10.31c0.44,3.6,1.11,7.07,2,10.43c0.89,3.36,2.12,6.02,3.7,8c1.58,1.98,3.6,3.01,6.06,3.09
			c2.47,0.08,5.48-1.33,9.03-4.24c4.77-3.88,9.11-8.75,13.04-14.61c3.92-5.86,7.01-11.9,9.28-18.13c0.32-0.56,0.73-0.73,1.21-0.49
			c0.49,0.24,0.61,0.65,0.36,1.21c-1.21,3.15-2.63,6.33-4.24,9.52c-1.62,3.19-3.38,6.27-5.28,9.22c-1.9,2.95-3.94,5.72-6.12,8.31
			c-2.18,2.59-4.49,4.85-6.91,6.79c-4.53,3.72-8.41,5.68-11.64,5.88c-3.23,0.2-5.98-0.73-8.25-2.79c-2.26-2.06-4.08-4.95-5.46-8.67
			c-1.37-3.72-2.42-7.64-3.15-11.76c-0.73-4.12-1.17-8.18-1.33-12.19C544.12,340.58,544.08,337.33,544.16,334.82z M542.22,336.28
			c-2.99-2.18-5.86-3.41-8.61-3.7c-2.75-0.28-5.27,0.14-7.58,1.27c-2.3,1.13-4.35,2.83-6.12,5.09c-1.78,2.26-3.27,4.89-4.49,7.88
			c-1.13,2.67-1.9,5.48-2.3,8.43c-0.41,2.95-0.49,5.62-0.24,8c0.24,2.39,0.85,4.3,1.82,5.76c0.97,1.45,2.26,2.06,3.88,1.82
			c1.53-0.24,3.11-1.03,4.73-2.36c1.62-1.33,3.21-3.03,4.79-5.09c1.58-2.06,3.09-4.32,4.55-6.79c1.45-2.46,2.79-4.95,4-7.46
			c1.21-2.5,2.3-4.87,3.27-7.09C540.89,339.81,541.65,337.89,542.22,336.28z M551.07,334.46c2.83-2.43,5.86-5.44,9.09-9.03
			c3.23-3.6,6.49-7.6,9.76-12c3.27-4.41,6.43-9.07,9.46-14c3.03-4.93,5.74-9.92,8.12-14.98c2.38-5.05,4.3-10.08,5.76-15.1
			c1.45-5.01,2.26-9.74,2.42-14.19c0.16-4.69-0.38-8.81-1.64-12.37c-1.26-3.56-2.93-6.28-5.03-8.18c-2.1-1.9-4.49-2.85-7.15-2.85
			c-2.67,0-5.38,1.13-8.12,3.4c-2.91,2.43-5.48,5.96-7.7,10.61c-2.22,4.65-4.16,9.9-5.82,15.76c-1.66,5.86-3.05,12.13-4.18,18.79
			c-1.13,6.67-2.04,13.28-2.73,19.83c-0.69,6.55-1.21,12.79-1.58,18.73C551.38,324.82,551.15,330.01,551.07,334.46z"/>
		<path class="st0" d="M600.06,323.54c-0.16,2.35-0.51,4.77-1.03,7.28c-0.53,2.51-1.03,4.69-1.52,6.55c1.29,1.13,2.61,1.8,3.94,2
			c1.33,0.2,2.59,0.2,3.76,0c1.17-0.2,2.28-0.55,3.33-1.03c1.05-0.48,1.94-0.93,2.67-1.33c1.86-0.73,3.4-0.81,4.61-0.24
			c1.21,0.57,1.62,1.5,1.21,2.79c-0.4,2.18-0.85,4.99-1.33,8.43c-0.49,3.44-0.81,7.03-0.97,10.79c-0.16,3.76-0.12,7.48,0.12,11.16
			c0.24,3.68,0.85,6.81,1.82,9.4c0.97,2.59,2.38,4.45,4.24,5.58c1.86,1.13,4.32,1.05,7.4-0.24c3.4-1.46,6.65-3.9,9.76-7.34
			c3.11-3.44,6.02-7.32,8.73-11.64c2.71-4.32,5.15-8.81,7.34-13.46c2.18-4.65,4.08-8.87,5.7-12.67c0.32-0.56,0.73-0.73,1.21-0.49
			c0.49,0.24,0.61,0.65,0.36,1.21c-1.62,4.29-3.52,8.79-5.7,13.52c-2.18,4.73-4.61,9.28-7.27,13.64c-2.67,4.37-5.58,8.31-8.73,11.82
			c-3.15,3.52-6.51,6.16-10.06,7.94c-3.96,2.02-7.3,2.73-10,2.12c-2.71-0.61-4.87-2.06-6.49-4.37c-1.62-2.3-2.81-5.25-3.58-8.85
			c-0.77-3.6-1.23-7.4-1.39-11.4c-0.16-4-0.06-8,0.3-12c0.36-4,0.83-7.54,1.39-10.61c-1.86,1.38-4.04,2.2-6.55,2.49
			c-2.51,0.28-5.01-0.1-7.52-1.15c-2.5-1.05-4.79-2.83-6.85-5.33c-2.06-2.5-3.54-5.9-4.43-10.19c-0.32-1.62-0.51-3.29-0.55-5.03
			c-0.04-1.74,0.12-3.37,0.48-4.91c0.36-1.53,0.91-2.93,1.64-4.18c0.73-1.25,1.7-2.24,2.91-2.97c1.38-0.81,2.75-1.19,4.12-1.15
			c1.37,0.04,2.61,0.59,3.7,1.64c1.09,1.05,1.94,2.59,2.55,4.61C600,317.93,600.22,320.47,600.06,323.54z M596.18,336.28
			c0.48-1.86,0.99-3.9,1.52-6.12c0.53-2.22,0.87-4.43,1.03-6.61c0.32-3.72,0.04-6.28-0.85-7.7c-0.89-1.41-1.88-1.9-2.97-1.46
			c-1.09,0.45-2.1,1.68-3.03,3.7c-0.93,2.02-1.27,4.57-1.03,7.64c0.08,2.02,0.69,4.06,1.82,6.12
			C593.79,333.91,594.97,335.39,596.18,336.28z"/>
		<path class="st0" d="M661.04,329.61c0.33-1.37,1.02-2.24,2.1-2.61c1.08-0.36,2.19-0.38,3.32-0.06c1.13,0.32,2.1,0.93,2.91,1.82
			c0.81,0.89,1.16,1.9,1.05,3.03c-0.32,1.13-0.68,2.63-1.05,4.49c-0.38,1.86-0.7,3.96-0.97,6.3c-0.27,2.35-0.48,4.83-0.65,7.46
			c-0.16,2.63-0.24,5.28-0.24,7.94c0,1.62,0.16,3.5,0.49,5.64c0.32,2.14,0.83,4.26,1.54,6.37c0.7,2.1,1.59,4.02,2.67,5.76
			c1.08,1.74,2.48,2.99,4.21,3.76c1.73,0.77,3.75,0.91,6.07,0.42c2.32-0.49,4.99-1.94,8.01-4.37c2.91-2.26,5.85-4.87,8.82-7.82
			c2.97-2.95,5.77-6.02,8.41-9.22c2.64-3.19,5.1-6.43,7.36-9.7c2.27-3.27,4.21-6.37,5.83-9.28c0.32-0.56,0.81-0.67,1.46-0.3
			c0.65,0.36,0.86,0.71,0.65,1.03c-1.62,2.91-3.59,6.04-5.91,9.4c-2.32,3.36-4.8,6.71-7.44,10.06c-2.64,3.36-5.45,6.57-8.41,9.64
			c-2.97,3.07-5.96,5.74-8.98,8c-3.99,3.07-7.55,5.05-10.68,5.94c-3.13,0.89-5.91,0.99-8.33,0.3c-2.43-0.69-4.5-1.98-6.23-3.88
			c-1.73-1.9-3.16-4.08-4.29-6.55c-1.13-2.47-2-5.05-2.59-7.76c-0.59-2.71-1-5.23-1.21-7.58c-0.21-2.91-0.29-5.82-0.24-8.73
			c0.05-2.91,0.19-5.62,0.4-8.12c0.22-2.5,0.51-4.75,0.89-6.73C660.36,332.3,660.71,330.74,661.04,329.61z M668.09,296.7
			c1.13,0,2.08,0.38,2.85,1.15c0.77,0.77,1.15,1.88,1.15,3.33c0,1.29-0.42,2.35-1.27,3.15c-0.85,0.81-1.84,1.21-2.97,1.21
			c-1.21-0.08-2.22-0.55-3.03-1.39c-0.81-0.85-1.21-1.96-1.21-3.33c0-1.46,0.44-2.5,1.33-3.15
			C665.83,297.02,666.88,296.7,668.09,296.7z"/>
		<path class="st0" d="M754.11,326.82c-0.73,2.1-1.44,4.43-2.12,6.97c-0.69,2.55-1.32,5.19-1.88,7.94
			c-0.57,2.75-1.05,5.54-1.45,8.37c-0.41,2.83-0.73,5.54-0.97,8.12c-0.08,0.81-0.18,2.06-0.3,3.76c-0.12,1.7-0.16,3.44-0.12,5.21
			c0.04,1.78,0.2,3.44,0.49,4.97c0.28,1.53,0.79,2.55,1.52,3.03c1.13,0.73,2.59,0.69,4.37-0.12c1.78-0.81,3.68-2.12,5.7-3.94
			c2.02-1.82,4.04-4.02,6.06-6.61c2.02-2.59,3.88-5.29,5.58-8.12c2.1-3.64,3.9-6.89,5.4-9.76c1.49-2.87,2.56-5.23,3.21-7.09
			c0.32-0.56,0.73-0.73,1.21-0.49s0.61,0.65,0.36,1.21c-0.89,2.18-2.04,4.77-3.45,7.76c-1.42,2.99-3.09,6.1-5.03,9.34
			c-1.94,3.15-4.04,6.23-6.31,9.22c-2.26,2.99-4.57,5.58-6.91,7.76c-2.35,2.18-4.65,3.8-6.91,4.85c-2.26,1.05-4.37,1.17-6.31,0.36
			c-1.13-0.49-2.02-1.33-2.67-2.55c-0.65-1.21-1.15-2.75-1.52-4.61c-0.36-1.86-0.55-3.98-0.55-6.37c0-2.38,0.12-4.91,0.36-7.58
			c0.4-3.72,0.97-7.64,1.7-11.76c0.73-4.12,1.62-8.2,2.67-12.25c-0.97,2.26-2.26,4.91-3.88,7.94c-1.62,3.03-3.4,6.06-5.34,9.09
			c-1.94,3.03-3.94,5.92-6,8.67c-2.06,2.75-4.06,4.97-6,6.67c-1.46,1.38-2.95,2.32-4.49,2.85c-1.53,0.53-2.91,0.53-4.12,0
			c-1.21-0.52-2.14-1.68-2.79-3.46c-0.65-1.78-0.85-4.24-0.61-7.4c0.41-5.58,1.8-10.73,4.18-15.46c2.39-4.73,5.25-8.49,8.61-11.28
			c3.35-2.79,6.91-4.37,10.67-4.73c3.76-0.36,7.25,1.03,10.49,4.18l1.94-5.46c0.56-1.37,1.19-2.24,1.88-2.61
			c0.69-0.36,1.29-0.42,1.82-0.18c0.53,0.24,0.95,0.71,1.27,1.39C754.19,325.38,754.27,326.09,754.11,326.82z M745.62,333
			c-2.18-2.43-4.59-3.58-7.21-3.46c-2.63,0.12-5.19,1.27-7.7,3.46c-2.51,2.18-4.85,5.19-7.03,9.03c-2.18,3.84-3.92,8.23-5.21,13.16
			c-0.65,2.26-0.99,4.3-1.03,6.12c-0.04,1.82,0.2,3.25,0.73,4.31c0.53,1.05,1.33,1.58,2.43,1.58c1.09,0,2.53-0.69,4.3-2.06
			c1.78-1.62,3.7-3.76,5.76-6.43c2.06-2.67,4.04-5.52,5.94-8.55c1.9-3.03,3.66-6.06,5.27-9.09
			C743.48,338.03,744.73,335.35,745.62,333z"/>
	</g>
	<g>
		<g>
			<path d="M215.45,427.19c-1.09-0.6-1.94-1.43-2.56-2.49c-0.62-1.06-0.93-2.25-0.93-3.56c0-1.31,0.31-2.5,0.93-3.56
				c0.62-1.06,1.47-1.89,2.57-2.49c1.09-0.6,2.32-0.9,3.67-0.9c1.01,0,1.95,0.17,2.81,0.51c0.86,0.34,1.59,0.83,2.19,1.48
				l-0.92,0.92c-1.07-1.08-2.41-1.62-4.04-1.62c-1.08,0-2.06,0.25-2.95,0.74c-0.88,0.5-1.58,1.17-2.08,2.03
				c-0.5,0.86-0.75,1.82-0.75,2.89c0,1.07,0.25,2.03,0.75,2.89c0.5,0.86,1.19,1.54,2.08,2.03c0.88,0.49,1.87,0.74,2.95,0.74
				c1.64,0,2.99-0.55,4.04-1.64l0.92,0.92c-0.6,0.65-1.33,1.15-2.2,1.49c-0.87,0.34-1.81,0.52-2.82,0.52
				C217.75,428.09,216.53,427.79,215.45,427.19z"/>
			<path d="M243.62,424.32h-7.61l-1.64,3.65h-1.5l6.24-13.66h1.43l6.24,13.66h-1.52L243.62,424.32z M243.09,423.15l-3.28-7.34
				l-3.28,7.34H243.09z"/>
			<path d="M267.92,422.09c0.49,0.58,0.73,1.32,0.73,2.24c0,1.17-0.43,2.07-1.3,2.7c-0.87,0.63-2.14,0.95-3.84,0.95h-6.28v-13.66
				h5.89c1.52,0,2.7,0.3,3.54,0.92c0.84,0.61,1.26,1.48,1.26,2.6c0,0.75-0.19,1.4-0.56,1.92c-0.37,0.53-0.88,0.92-1.53,1.18
				C266.74,421.12,267.44,421.51,267.92,422.09z M258.68,415.5v4.96h4.35c1.11,0,1.96-0.21,2.56-0.63c0.6-0.42,0.9-1.04,0.9-1.84
				c0-0.81-0.3-1.42-0.9-1.84c-0.6-0.42-1.45-0.63-2.56-0.63H258.68z M266.27,426.16c0.62-0.42,0.94-1.07,0.94-1.95
				c0-1.7-1.24-2.56-3.71-2.56h-4.82v5.13h4.82C264.73,426.78,265.65,426.57,266.27,426.16z"/>
			<path d="M288.72,424.32h-7.61l-1.64,3.65h-1.5l6.24-13.66h1.43l6.24,13.66h-1.52L288.72,424.32z M288.19,423.15l-3.28-7.34
				l-3.28,7.34H288.19z"/>
			<path d="M313.63,414.31v13.66h-1.19l-8.78-11.08v11.08h-1.44v-13.66h1.19l8.8,11.08v-11.08H313.63z"/>
			<path d="M334.97,424.32h-7.61l-1.64,3.65h-1.5l6.24-13.66h1.43l6.24,13.66h-1.52L334.97,424.32z M334.44,423.15l-3.28-7.34
				l-3.28,7.34H334.44z"/>
			<path d="M349.44,427.6c-0.93-0.32-1.65-0.75-2.16-1.29l0.57-1.11c0.49,0.49,1.15,0.89,1.97,1.2c0.82,0.3,1.67,0.46,2.54,0.46
				c1.22,0,2.14-0.22,2.75-0.67c0.61-0.45,0.92-1.03,0.92-1.75c0-0.55-0.17-0.98-0.5-1.31c-0.33-0.32-0.74-0.57-1.22-0.75
				c-0.48-0.18-1.15-0.37-2.01-0.57c-1.03-0.26-1.85-0.51-2.46-0.75c-0.61-0.24-1.14-0.61-1.57-1.1c-0.44-0.49-0.65-1.17-0.65-2.01
				c0-0.69,0.18-1.32,0.55-1.88c0.36-0.57,0.92-1.02,1.68-1.36c0.75-0.34,1.69-0.51,2.81-0.51c0.78,0,1.55,0.11,2.29,0.32
				c0.75,0.22,1.4,0.51,1.94,0.89l-0.49,1.15c-0.57-0.38-1.18-0.66-1.84-0.85c-0.65-0.19-1.29-0.28-1.91-0.28
				c-1.2,0-2.1,0.23-2.7,0.69c-0.61,0.46-0.91,1.06-0.91,1.78c0,0.55,0.17,0.99,0.5,1.32c0.33,0.33,0.75,0.59,1.25,0.76
				c0.5,0.18,1.17,0.37,2.02,0.58c1,0.25,1.81,0.49,2.43,0.73c0.62,0.24,1.14,0.6,1.57,1.09c0.43,0.49,0.64,1.15,0.64,1.98
				c0,0.69-0.19,1.32-0.56,1.88c-0.37,0.57-0.94,1.01-1.71,1.35c-0.77,0.33-1.71,0.5-2.83,0.5
				C351.34,428.09,350.37,427.93,349.44,427.6z"/>
			<path d="M391.76,426.72v1.25h-9.66v-13.66h9.37v1.25h-7.92v4.86h7.07v1.23h-7.07v5.07H391.76z"/>
			<path d="M414.77,414.31v13.66h-1.19l-8.78-11.08v11.08h-1.44v-13.66h1.19l8.8,11.08v-11.08H414.77z"/>
			<path d="M450.38,426.72v1.25h-9.66v-13.66h9.37v1.25h-7.92v4.86h7.07v1.23h-7.07v5.07H450.38z"/>
			<path d="M461.97,414.31h1.44v12.41h7.65v1.25h-9.09V414.31z"/>
			<path d="M494.97,414.31h5.56c1.44,0,2.72,0.29,3.83,0.87c1.11,0.58,1.96,1.38,2.58,2.42c0.61,1.03,0.92,2.21,0.92,3.54
				s-0.31,2.51-0.92,3.54c-0.61,1.03-1.47,1.84-2.58,2.42c-1.11,0.58-2.38,0.87-3.83,0.87h-5.56V414.31z M500.46,426.72
				c1.2,0,2.24-0.24,3.14-0.71c0.9-0.48,1.59-1.13,2.09-1.97c0.49-0.84,0.74-1.81,0.74-2.9s-0.25-2.06-0.74-2.9
				c-0.5-0.84-1.19-1.5-2.09-1.97c-0.9-0.47-1.95-0.71-3.14-0.71h-4.04v11.16H500.46z"/>
			<path d="M528.95,426.72v1.25h-9.66v-13.66h9.37v1.25h-7.92v4.86h7.07v1.23h-7.07v5.07H528.95z"/>
			<path d="M540.54,414.31h1.44v12.41h7.65v1.25h-9.09V414.31z"/>
			<path d="M561.62,415.56h-4.8v-1.25h11.05v1.25h-4.8v12.41h-1.44V415.56z"/>
			<path d="M586.25,424.32h-7.61l-1.64,3.65h-1.5l6.24-13.66h1.43l6.24,13.66h-1.52L586.25,424.32z M585.72,423.15l-3.28-7.34
				l-3.28,7.34H585.72z"/>
		</g>
		<line class="st1" x1="303.76" y1="411.25" x2="312.08" y2="411.25"/>
	</g>
	<path d="M670.25,298.65c0,0,0.93-3.6,5.54-5.54s4.4-3.4,4.4-4s0.2-5.6,2.13-8.54c1.93-2.94,4.27-8.41,13.88-10.01
		c0,0,2.07-0.47,7.34,0c5.27,0.47,13.14,0.8,17.34,0.2c4.2-0.6,23.75-4.4,31.15-12.14c7.4-7.74,12.21-14.21,15.61-20.15
		c3.4-5.94,11.87-21.68,13.61-25.02c1.73-3.34,5.8-12.21,5.8-12.21s1.13-1.33,0.47,1.2s-2,5.54-2,5.54s3.34-7.4,3.87-7.74
		c0.53-0.33,2.07-1.67,1.2,0.33s-3.4,8.41-3.4,8.41s4.47-9.81,5-10.21c0.53-0.4,1.2-1.8,1.6-1.2c0.4,0.6-1.07,4-1.33,4.34
		c-0.27,0.33-6.14,13.48-5.94,14.48c0,0,8.21-19.41,10.21-20.15c2-0.73,0.4,1.6,0.33,1.93c-0.07,0.33-5.2,10.94-5.2,10.94
		s5.8-11.01,7.07-12.21c1.27-1.2,2.74-0.81,2.74-0.81s1.2-0.33,0.33,1.54S789.73,222,789.73,222l12.59-22.48c0,0,1.75-3.8,4.36-4.07
		c2.6-0.27,1.47-0.07,0.33,2.2c-1.13,2.27-11.81,20.41-11.81,20.41s13.21-21.88,14.94-22.01c1.73-0.13,4.8-0.13,4.8,0.13
		c0,0.27-21.41,30.55-22.61,32.75c-1.2,2.2-10.54,14.14-12.14,16.34c-1.6,2.2-5.27,7.14-5.8,8.21c-0.53,1.07-1.27,0.8-1.07,3.94
		c0.2,3.14,0.87,7.74,0.87,7.74s0.53,1.67,3.54,2c3,0.33,15.08,0.8,16.74,0.27c1.67-0.53-0.4,2.6-1.13,3.54
		c-0.73,0.93-3.18,3.43-3.18,3.43l-4.22-0.07c0,0,3,1.17,3.33,1.17l-0.55,0.59c0,0-4.99-0.73-5.19-0.8
		c-0.2-0.07,4.27,1.61,4.27,1.61l-2,1.67c0,0-7.17-2.02-8.17-2.56c-1-0.53,5.77,2.76,7.1,2.96c1.33,0.2-2.87,2.47-2.87,2.47
		l-4.74,2.67c0,0-2.8,1.93-2.94,3.87s-3.34,7.6-5.34,9.47c0,0-1.2,0.53-1,2s2.2,13.28-6.34,23.75
		c-8.54,10.47-11.41,13.08-11.41,13.08l-2.47-1.07l3.67-3.07c0,0,13.28-13.14,13.48-21.41c0,0,0.4-1.53-1.13-3.27
		c-1.53-1.73-1.93-2.07-1.93-2.07s-0.6-0.53-1.4,0.2c-0.8,0.73-3.67,3.87-7.14,5.27c0,0-2.74,0.27-2.94,2.47
		c-0.2,2.2,0.2,2.4-1.2,4.07c-1.4,1.67-14.21,10.81-14.21,10.81l-3.47,2.47l-2-0.47l1.07-1.27c0,0,14.28-10.61,14.81-12.81
		c0,0,0.4-1.07-0.8-1.07s-21.48,0.93-29.89-2.4c-8.41-3.34-14.08-6.27-19.61-12.07c-5.54-5.8-18.61-5.47-24.35-1.47L670.25,298.65z"
		/>
</g>
</svg>
