<svg width="24" height="23" viewBox="0 0 24 23" fill="none" xmlns="http://www.w3.org/2000/svg">
<path fill-rule="evenodd" clip-rule="evenodd" d="M17.7431 13.733C17.4561 13.5907 16.049 12.9051 15.787 12.8097C15.5251 12.7151 15.3344 12.6683 15.1427 12.9529C14.952 13.2355 14.404 13.8753 14.2374 14.0644C14.0698 14.2544 13.9032 14.2773 13.6172 14.136C13.3311 13.9927 12.4085 13.6939 11.3154 12.7275C10.4649 11.9751 9.88997 11.046 9.72335 10.7615C9.55673 10.4779 9.70505 10.3241 9.84855 10.1828C9.97761 10.0558 10.1346 9.85146 10.2781 9.68627C10.4216 9.52012 10.4688 9.40172 10.5641 9.2117C10.6604 9.02263 10.6123 8.85744 10.5401 8.71516C10.4688 8.57289 9.89671 7.17591 9.65786 6.60776C9.42575 6.05489 9.18979 6.13032 9.01451 6.12077C8.84693 6.11313 8.65624 6.11122 8.46554 6.11122C8.27485 6.11122 7.96473 6.18188 7.70277 6.46644C7.43984 6.75003 6.70114 7.43659 6.70114 8.83357C6.70114 10.2296 7.72588 11.5788 7.86938 11.7688C8.01288 11.9579 9.88708 14.8244 12.7581 16.0534C13.4419 16.3455 13.9745 16.5203 14.3896 16.6502C15.0753 16.8669 15.6994 16.8364 16.1925 16.7628C16.7415 16.6817 17.8856 16.0763 18.1245 15.4136C18.3624 14.7509 18.3623 14.1828 18.2911 14.0644C18.2198 13.946 18.0291 13.8753 17.7421 13.733H17.7431ZM12.5212 20.8019H12.5173C10.8121 20.8022 9.13814 20.3478 7.67098 19.4861L7.32427 19.2818L3.72035 20.2195L4.68249 16.7361L4.45616 16.379C3.50282 14.8744 2.99831 13.1331 3.00092 11.3563C3.00284 6.15228 7.27322 1.91838 12.525 1.91838C15.0676 1.91838 17.458 2.9019 19.2551 4.6856C20.1416 5.56082 20.8441 6.60161 21.3222 7.74778C21.8003 8.89394 22.0444 10.1227 22.0404 11.363C22.0385 16.5671 17.7681 20.8019 12.5212 20.8019ZM20.6227 3.33063C19.5616 2.27161 18.299 1.43191 16.9082 0.860189C15.5173 0.288472 14.0258 -0.0038923 12.5202 3.91283e-05C6.20804 3.91283e-05 1.06894 5.09428 1.06701 11.3554C1.06409 13.348 1.5913 15.3061 2.59545 17.0321L0.970703 22.917L7.04208 21.3376C8.7216 22.2449 10.6037 22.7202 12.5163 22.7203H12.5212C18.8333 22.7203 23.9724 17.626 23.9743 11.364C23.979 9.87177 23.6852 8.39347 23.1099 7.01457C22.5346 5.63567 21.6892 4.38354 20.6227 3.33063Z" fill="white"/>
</svg>
